
<svg xmlns="http://www.w3.org/2000/svg" viewBox="0 0 120 120">
  <!-- Motion capture camera -->
  <rect x="0" y="14" width="40" height="30" rx="5" fill="#facc15"/>
  <circle cx="20" cy="29" r="10" fill="#fff"/>
  <circle cx="20" cy="29" r="5" fill="#000"/>
  <!-- Infrared LEDs -->
  <g fill="#000">
    <circle cx="8" cy="21" r="1.5"/>
    <circle cx="32" cy="21" r="1.5"/>
    <circle cx="8" cy="37" r="1.5"/>
    <circle cx="32" cy="37" r="1.5"/>
  </g>
  <!-- Mount -->
  <rect x="12" y="44" width="16" height="4" fill="#facc15"/>
  <rect x="16" y="48" width="8" height="14" fill="#facc15"/>

  <!-- Tennis player -->
  <g stroke="#000" stroke-width="2" fill="none">
    <circle cx="72" cy="36" r="8" fill="#facc15"/>
    <line x1="72" y1="44" x2="72" y2="80"/>
    <line x1="72" y1="52" x2="56" y2="64"/>
    <line x1="72" y1="52" x2="88" y2="60"/>
    <line x1="72" y1="80" x2="60" y2="108"/>
    <line x1="72" y1="80" x2="84" y2="108"/>
    <!-- Racket -->
    <line x1="88" y1="60" x2="108" y2="46"/>
    <ellipse cx="113" cy="42" rx="5" ry="10"/>
    <!-- Tennis ball -->
    <circle cx="101" cy="24" r="4" fill="#facc15"/>
  </g>
</svg>
